 <svg  version="1.0" xmlns="http://www.w3.org/2000/svg"  width="48.000000pt" height="48.000000pt" viewBox="0 0 48.000000 48.000000"  preserveAspectRatio="xMidYMid meet">  <g transform="translate(0.000000,48.000000) scale(0.100000,-0.100000)" fill="#ffd700" stroke="none"> <path d="M100 470 c0 -8 11 -33 23 -55 30 -52 40 -78 27 -70 -6 3 -10 -1 -10 -10 0 -9 4 -13 10 -10 6 3 10 -2 11 -12 0 -10 5 -5 10 12 7 23 5 39 -11 70 -28 55 -60 94 -60 75z"/> <path d="M353 452 c-42 -57 -54 -90 -44 -125 l9 -32 2 30 c1 18 4 23 7 13 2 -10 8 -18 13 -18 4 0 3 14 -3 30 -9 24 -9 33 0 38 13 8 47 82 40 88 -2 2 -13 -9 -24 -24z"/> <path d="M56 397 c-23 -17 -28 -74 -10 -109 16 -32 26 -37 22 -10 -2 10 2 16 10 14 8 -1 11 2 7 8 -3 5 3 10 14 10 12 0 21 -6 21 -14 0 -8 14 -19 30 -25 17 -5 30 -13 30 -17 0 -3 -6 -4 -13 -1 -11 4 -11 -2 -4 -27 10 -31 11 -31 73 -28 38 2 65 -1 69 -8 5 -8 -15 -11 -69 -9 -42 1 -79 -1 -83 -4 -11 -12 -23 -8 -23 7 0 8 -5 18 -10 21 -7 4 -9 -2 -7 -17 6 -35 -11 -88 -29 -88 -27 0 -64 -32 -64 -55 0 -28 19 -36 57 -26 20 5 31 3 38 -7 9 -11 20 -12 73 -1 49 10 72 11 107 1 59 -16 75 -15 75 2 0 11 7 13 31 6 35 -10 59 -4 59 16 0 24 -4 29 -23 27 -19 -3 -16 8 12 40 14 17 14 20 -2 32 -22 16 -22 23 1 21 18 -1 19 13 6 66 -4 19 -1 32 10 43 9 9 16 24 16 32 0 14 -3 14 -20 -2 -22 -20 -26 -59 -10 -99 6 -17 6 -26 0 -26 -6 0 -10 6 -10 13 0 6 -5 4 -11 -6 -6 -10 -9 -28 -6 -38 3 -13 1 -19 -6 -16 -15 5 -14 23 1 60 13 32 4 59 -22 63 -23 3 -20 -17 4 -23 20 -5 25 -15 13 -26 -3 -4 -12 1 -20 11 -13 16 -13 16 -11 -3 1 -11 -1 -26 -5 -32 -5 -8 -4 -13 2 -13 6 0 11 -8 11 -18 0 -11 10 -24 23 -30 21 -10 21 -11 -8 -11 -19 0 -43 10 -65 29 -26 22 -30 30 -17 30 9 0 17 -4 17 -9 0 -5 6 -11 14 -14 10 -4 14 3 14 29 0 19 -4 34 -9 34 -5 0 -9 -7 -9 -15 0 -20 -14 -19 -31 1 -10 12 -10 22 -2 44 9 23 8 27 -3 23 -8 -3 -14 -2 -14 1 0 4 14 12 30 17 17 6 30 17 30 25 0 8 9 14 21 14 11 0 17 -5 14 -10 -4 -6 -1 -9 7 -8 8 2 12 -4 10 -14 -4 -27 6 -22 22 10 18 35 13 92 -10 109 -26 19 -64 -14 -57 -49 5 -23 1 -29 -21 -38 -14 -5 -26 -13 -26 -17 0 -5 -17 -8 -37 -7 -39 2 -67 -11 -57 -27 3 -5 13 -9 22 -8 11 0 12 3 5 6 -19 7 -15 22 5 20 25 -1 25 -30 0 -46 -17 -10 -23 -10 -38 4 -11 10 -16 24 -12 37 4 18 2 20 -21 16 -15 -3 -27 -1 -27 4 0 5 -11 13 -24 17 -22 9 -44 51 -25 51 16 0 9 14 -15 32 -19 14 -27 15 -40 5z m41 -50 c2 -17 1 -19 -7 -7 -8 12 -10 13 -10 1 0 -8 -2 -12 -5 -10 -2 3 -2 15 2 27 6 26 15 21 20 -11z m323 -7 c5 0 10 -7 10 -15 0 -8 -5 -15 -11 -15 -5 0 -8 4 -5 9 3 5 0 14 -8 20 -11 9 -15 9 -19 -1 -3 -7 -4 -2 -2 12 5 37 5 37 15 13 5 -13 14 -23 20 -23z m-130 -199 c-6 -12 -8 -21 -4 -21 3 0 -4 -9 -17 -19 -14 -11 -20 -23 -15 -28 5 -4 11 -2 13 5 3 6 9 10 14 6 18 -11 8 -21 -18 -19 -41 3 -45 4 -39 14 3 5 -2 15 -11 22 -15 12 -16 12 -11 -7 4 -17 -1 -25 -21 -34 -14 -6 -23 -9 -19 -5 4 4 1 14 -7 22 -20 20 -19 32 3 28 9 -1 16 -10 16 -19 -3 -25 13 -19 18 8 6 32 -11 64 -23 45 -7 -12 -11 -11 -26 4 -16 16 -16 17 15 17 20 0 35 -6 38 -15 7 -17 34 -21 34 -4 0 5 5 7 12 3 9 -6 9 -9 0 -12 -7 -2 -12 -10 -12 -19 0 -22 23 -10 45 24 22 34 33 37 15 4z m40 -45 c0 -7 -7 -19 -15 -26 -16 -13 -20 -3 -9 24 8 20 24 21 24 2z m95 -51 c6 -2 -11 -3 -37 -3 -26 1 -54 -4 -62 -11 -10 -8 -16 -9 -16 -3 0 6 9 14 20 17 11 4 18 10 15 15 -4 7 49 -3 80 -15z m-271 0 c21 -9 36 -11 36 -5 0 5 11 10 25 10 29 0 34 -18 5 -19 -11 -1 -29 -1 -40 -2 -11 0 -20 -4 -20 -10 0 -5 -9 -9 -20 -9 -11 0 -20 5 -20 10 0 6 8 10 17 10 9 0 13 3 9 7 -3 4 -28 6 -54 6 -37 -1 -42 0 -22 7 37 12 44 11 84 -5z m206 -25 c0 -5 -7 -10 -15 -10 -8 0 -15 5 -15 10 0 6 7 10 15 10 8 0 15 -4 15 -10z"/> <path d="M213 377 c-44 -64 -42 -67 27 -67 55 0 61 2 56 18 -9 22 -49 82 -56 82 -3 0 -15 -15 -27 -33z"/> <path d="M0 292 c0 -12 7 -25 16 -30 13 -7 15 -17 10 -38 -11 -47 -12 -67 -1 -70 6 -2 11 23 13 59 2 53 -1 67 -18 82 -19 18 -20 18 -20 -3z"/> <path d="M96 259 c9 -10 13 -23 9 -28 -3 -6 -2 -11 3 -11 5 0 14 11 20 24 10 22 8 24 -19 28 -27 4 -28 3 -13 -13z"/> <path d="M368 273 c-25 -4 -26 -6 -16 -29 6 -13 15 -24 20 -24 5 0 6 5 3 11 -4 5 1 19 11 30 9 10 15 18 13 18 -2 -1 -16 -4 -31 -6z"/> <path d="M59 228 c-5 -10 -7 -23 -4 -28 3 -5 1 -12 -5 -15 -6 -4 -8 -15 -5 -26 4 -12 1 -21 -9 -25 -18 -7 -19 -13 -7 -33 7 -11 13 -10 32 8 19 18 20 21 5 15 -16 -6 -17 -4 -8 13 8 15 8 24 -1 33 -10 12 -9 12 5 1 10 -7 15 -17 12 -22 -9 -14 6 -10 22 6 9 8 11 15 6 15 -6 0 -8 17 -6 38 2 30 0 39 -12 39 -8 0 -20 -9 -25 -19z m25 -23 c-4 -8 -10 -12 -15 -9 -14 8 -10 24 6 24 9 0 12 -6 9 -15z"/> </g> </svg> 